PathFileType	4	(X/Y/Z)	walk-thru1-4-TP.trc
DataRate	CameraRate	NumFrames	NumMarkers	Units	OrigDataRate	OrigDataStartFrame	OrigNumFrames
120.00	120.00	       4	60	mm	120.00	129	       512
Frame#	Time	Top.Head			Front.Head			Rear.Head			Jaw			C7			R.Clavicle			L.Clavicle			R.Shoulder			L.Shoulder			R.Scapula			L.Scapula			R.Scap.Inf			R.Biceps.Lateral			R.Elbow			R.Elbow.Medial			R.Forearm			R.Ulna			R.Radius			R.Wrist			R.Thumb.M1			R.Thumb.M2			R.Thumb.M3			R.Finger3.M1			R.Finger3.M2			R.Finger3.M3			L.Biceps.Lateral			L.Elbow			L.Elbow.Medial			L.Forearm			L.Ulna			L.Radius			L.Wrist			L.Thumb.M1			L.Thumb.M2			L.Thumb.M3			L.Finger3.M1			L.Finger3.M2			L.Finger3.M3			V.Sacral			R.ASIS			L.ASIS			R.Thigh			R.Thigh.Front			R.Knee			R.Knee.Medial			R.Shank			R.Ankle			R.Ankle.Medial			R.Heel			R.Toe			R.MedFoot			L.Thigh			L.Knee			L.Knee.Medial			L.Shank			L.Ankle			L.Ankle.Medial			L.Heel			L.Toe			L.MedFoot			V_mid_ASIS			V_R_Knee_JC			V_L_Knee_JC			V_R_Elbow_JC			V_L_Elbow_JC			V_R_Ankle_JC			V_L_Ankle_JC			V_R_Wrist_JC			V_L_Wrist_JC			V_R_ScaTrpz_1stMC_JC			V_R_1stMC_1stPP_JC			V_R_1stPP_1stDP_JC			V_R_LunCap_3rdMC_JC			V_R_3rdMC_3rdPP_JC			V_R_3rdPP_3rdMP_JC			V_R_3rdMP_3rdDP_JC			V_L_ScaTrpz_1stMC_JC			V_L_1stMC_1stPP_JC			V_L_1stPP_1stDP_JC			V_L_LunCap_3rdMC_JC			V_L_3rdMC_3rdPP_JC			V_L_3rdPP_3rdMP_JC			V_L_3rdMP_3rdPP_JC			V_ROOT_JC			V_R_Hip_JC			V_L_Hip_JC			V_R_GlenHum_JC			V_L_GlenHum_JC			V_ForeHead_Ctr			V_Vertex			V_Sagit_Lambdoid_Suture			V_R_FrontoTemp			V_L_FrontoTemporal			V_R_ParietalOccip			V_L_ParietalOcciptal			V_R_Temporal			V_L_Temporal			V_mid_FrontRearHead			V_mid_RLGlenHumCtrs			V_C7_vert			V_C1_vert			V_Mid_Hip			
		X1	Y1	Z1	X2	Y2	Z2	X3	Y3	Z3	X4	Y4	Z4	X5	Y5	Z5	X6	Y6	Z6	X7	Y7	Z7	X8	Y8	Z8	X9	Y9	Z9	X10	Y10	Z10	X11	Y11	Z11	X12	Y12	Z12	X13	Y13	Z13	X14	Y14	Z14	X15	Y15	Z15	X16	Y16	Z16	X17	Y17	Z17	X18	Y18	Z18	X19	Y19	Z19	X20	Y20	Z20	X21	Y21	Z21	X22	Y22	Z22	X23	Y23	Z23	X24	Y24	Z24	X25	Y25	Z25	X26	Y26	Z26	X27	Y27	Z27	X28	Y28	Z28	X29	Y29	Z29	X30	Y30	Z30	X31	Y31	Z31	X32	Y32	Z32	X33	Y33	Z33	X34	Y34	Z34	X35	Y35	Z35	X36	Y36	Z36	X37	Y37	Z37	X38	Y38	Z38	X39	Y39	Z39	X40	Y40	Z40	X41	Y41	Z41	X42	Y42	Z42	X43	Y43	Z43	X44	Y44	Z44	X45	Y45	Z45	X46	Y46	Z46	X47	Y47	Z47	X48	Y48	Z48	X49	Y49	Z49	X50	Y50	Z50	X51	Y51	Z51	X52	Y52	Z52	X53	Y53	Z53	X54	Y54	Z54	X55	Y55	Z55	X56	Y56	Z56	X57	Y57	Z57	X58	Y58	Z58	X59	Y59	Z59	X60	Y60	Z60	

129	1.067	-510.55869	-0.97715	1795.02527	-411.55927	-0.58467	1680.61243	-638.89087	-1.96745	1698.47827	-457.81445	-5.22675	1515.00354	-653.44147	1.63643	1560.25049	-563.31439	-121.04400	1468.07141	-543.76410	104.42136	1463.91394	-607.48260	-207.24751	1464.69324	-607.26709	204.50847	1472.57495	-709.57227	-86.20135	1480.18018	-701.19531	80.59415	1480.19824	-759.26208	-94.47603	1393.71497	-661.25934	-267.39868	1290.30420	-702.97375	-284.94339	1140.22058	-715.53821	-195.86803	1120.37500	-617.61188	-246.27397	1020.16327	-657.31598	-288.84891	922.89624	-594.35321	-233.31442	887.79913	-601.71552	-273.84021	841.96796	-583.90497	-230.24660	853.06409	-549.04071	-202.43747	805.73438	-514.49512	-202.50587	777.55688	-562.15881	-282.74243	771.00085	-547.58813	-243.83075	716.02716	-561.17499	-199.60942	691.65314	-633.95050	263.73691	1323.89917	-652.45618	304.72772	1147.23950	-700.32831	241.07710	1132.92358	-589.01520	271.81329	1042.54858	-640.15405	293.89590	952.07013	-575.51361	236.61072	904.06512	-579.97968	269.10196	844.55768	-567.31842	220.60786	839.02869	-573.66913	186.03441	789.76971	-568.93512	190.16521	728.00067	-565.14020	282.33371	769.80756	-579.65692	262.04993	713.72614	-604.19183	242.19815	672.19586	-749.29156	8.36072	1085.57019	-675.23096	-190.71552	1031.60559	-634.74548	182.98322	1022.14447	-632.64606	-166.55312	620.84686	-556.38281	-89.79576	528.95258	-629.68738	-148.46834	486.37503	-627.18927	-31.04288	482.45981	-713.05890	-102.96136	320.83496	-928.41443	-129.06807	154.72388	-883.19299	-36.29235	153.61703	-986.41553	-67.52719	164.75668	-799.53668	-88.14459	46.32990	-832.85931	-52.77109	87.73019	-540.58124	154.57439	643.92780	-491.14468	125.59701	506.72153	-491.82138	10.65240	512.75098	-484.49457	68.15696	308.91486	-581.50879	81.34249	64.09346	-551.30194	-10.33649	107.74452	-635.61932	21.62793	54.29383	-397.67816	37.98181	44.55641	-462.49280	7.37338	70.44634																																																																																																																															
130	1.075	-504.34561	-1.69537	1796.04065	-405.88712	1.88288	1681.34033	-632.64545	-1.40122	1699.22351	-452.58487	-4.47890	1515.97986	-647.91144	3.26516	1561.48718	-556.35052	-120.06108	1468.97095	-535.61249	105.29358	1465.95898	-602.37659	-206.45540	1466.47119	-599.81049	204.44180	1473.55444	-703.80884	-84.22018	1481.46960	-695.65558	82.31040	1481.15955	-752.40735	-93.85677	1394.09656	-656.67938	-266.59964	1292.11353	-698.26355	-284.35648	1141.08325	-710.59753	-194.00824	1122.87500	-613.47937	-244.68599	1020.81781	-653.59979	-287.20691	923.83716	-590.37909	-232.61584	888.76892	-598.74951	-272.94812	843.14551	-580.98303	-228.51698	855.19623	-545.00446	-198.95091	806.27435	-510.37500	-201.66090	778.46808	-558.86292	-281.71692	771.40515	-544.66785	-242.36765	717.41803	-558.65320	-198.65804	692.61755	-627.23914	266.35522	1325.27966	-645.72772	305.94241	1147.37134	-693.69434	243.45937	1134.15466	-579.87885	273.81976	1043.67017	-631.83325	295.95428	953.42865	-566.49664	238.82901	904.63385	-570.88416	270.73221	845.21283	-558.37317	223.03935	840.33820	-564.79169	185.33363	792.12872	-560.94696	190.15269	730.49731	-556.57239	282.74200	772.09192	-569.39215	261.69049	715.74561	-595.40643	242.72423	673.57440	-744.24628	10.40529	1087.52991	-670.43524	-189.69427	1031.98657	-630.54846	184.75627	1024.84070	-619.94122	-166.00589	621.19000	-542.04877	-90.91432	529.02258	-614.68982	-149.58426	486.57422	-612.70428	-30.45934	483.41916	-700.29144	-103.39487	322.27716	-920.95123	-129.02162	161.63693	-875.50140	-36.53820	158.81982	-977.71606	-67.77374	174.05737	-797.86743	-86.12659	46.98254	-827.68671	-52.79196	90.06450	-537.83179	155.55060	645.41132	-490.29398	126.08066	506.57928	-491.32651	10.93772	512.34003	-484.31567	67.74412	308.80176	-581.68896	81.25104	63.95375	-551.42896	-10.26704	107.70258	-635.73566	22.08021	54.08068	-397.39487	38.15974	44.49249	-462.57828	7.34664	70.23762																																																																																																																															
131	1.083	-497.95007	0.43988	1797.61816	-400.10971	2.32671	1682.92542	-627.04395	0.06063	1699.59351	-445.51746	-2.45943	1517.54138	-641.13971	2.81334	1562.54260	-551.39471	-118.34103	1470.26233	-531.39117	108.27148	1466.61780	-596.51825	-204.50841	1467.90857	-593.86255	206.85858	1474.75159	-697.59528	-82.55261	1482.58740	-688.16016	83.70062	1482.14417	-746.97095	-92.46267	1395.53748	-651.29230	-264.48352	1293.51172	-693.04822	-282.52435	1142.46680	-704.59564	-194.20343	1124.38354	-610.01788	-244.49196	1022.89557	-650.16339	-285.25558	925.33044	-587.15698	-231.66675	889.72565	-594.38538	-271.73715	844.34027	-577.96936	-227.42989	855.85919	-542.17084	-200.50288	808.48511	-507.33521	-200.35574	779.44336	-555.86188	-280.45029	773.15747	-542.36292	-243.61082	718.45166	-555.20355	-199.42998	692.66534	-620.57379	268.18259	1325.03442	-637.90479	307.01236	1148.85962	-686.08020	243.53496	1135.28662	-572.47430	274.93591	1045.76257	-624.21503	296.35333	954.62775	-557.25208	238.24187	906.63043	-562.05231	272.17029	847.98181	-549.37378	222.64685	841.39459	-555.94757	186.32303	793.16150	-550.26971	190.97548	731.54358	-546.79248	283.78748	773.55542	-561.35822	263.22443	717.05804	-585.01318	243.78476	674.76099	-738.60895	10.63172	1088.57654	-664.85089	-187.99069	1031.85999	-621.36963	186.81764	1025.46265	-608.62982	-167.12207	621.17200	-528.77100	-93.55910	530.18958	-601.29358	-149.95927	487.63669	-595.86987	-33.23659	483.39600	-689.86884	-107.97801	323.15802	-911.43079	-130.02615	167.58144	-865.99823	-36.16972	164.35808	-968.21112	-68.92034	183.33257	-797.17383	-85.27610	47.67994	-822.62335	-52.14616	92.52343	-534.66241	156.37018	645.77893	-489.47772	126.87072	506.08850	-490.77377	11.39961	512.02716	-484.14761	67.79958	308.62198	-581.67688	81.26016	63.57708	-551.42896	-10.26704	107.70258	-635.76599	22.26406	54.03968	-397.23923	38.57879	44.39325	-462.57828	7.34664	70.23762																																																																																																																															
132	1.092	-492.56406	0.17909	1797.99487	-394.26956	3.27220	1684.31189	-620.78790	0.95285	1700.54248	-440.17453	-3.04961	1518.03015	-636.22662	4.39848	1563.97681	-544.57300	-117.67677	1470.97571	-525.04041	108.34364	1466.64502	-590.82483	-203.01921	1468.43103	-586.95270	208.30908	1475.73413	-691.57050	-81.88544	1482.72839	-681.24823	85.60086	1482.86865	-740.90497	-90.15752	1395.80823	-646.92053	-263.73956	1295.27905	-689.39429	-280.86172	1144.36145	-700.25507	-192.68648	1125.42200	-605.83472	-243.65312	1023.67279	-646.07568	-284.67331	926.03540	-583.08618	-230.54037	890.88739	-591.71478	-271.13519	845.51648	-573.25781	-225.14983	856.35944	-536.82642	-198.84402	808.89368	-503.77393	-200.11093	779.76105	-553.03418	-279.79791	773.41193	-538.23376	-239.68733	719.19592	-551.52478	-197.41545	694.06396	-613.18024	269.96451	1327.25757	-630.55786	308.69711	1150.65234	-678.78937	246.50121	1135.82129	-563.95752	276.02930	1046.88330	-614.29156	298.06131	955.53088	-549.68152	239.15570	908.57019	-552.44586	271.80853	849.63251	-540.90918	224.29680	843.20544	-546.93268	188.30724	794.61847	-542.94366	191.11050	732.38452	-536.80450	284.22260	775.00702	-550.43152	263.47479	718.13507	-576.29260	244.92416	676.35175	-732.33038	11.71330	1089.83826	-662.09351	-187.46393	1032.60486	-616.75586	188.10167	1026.07214	-596.36316	-167.05365	621.57080	-514.90399	-95.74453	531.58405	-588.45947	-150.45555	488.21481	-581.29736	-34.13776	483.87909	-678.81219	-106.33270	324.50320	-902.27039	-130.76416	174.42534	-857.65546	-37.37534	169.47139	-959.29919	-69.68499	190.92438	-794.26385	-84.65257	49.99183	-817.80743	-51.16739	95.63332	-532.02325	156.67509	646.02167	-488.02200	127.34240	505.78174	-491.12918	12.10259	511.85022	-482.87418	67.56662	308.45880	-582.00012	81.45419	63.31653	-551.42896	-10.26704	107.70258	-635.88953	22.30194	54.15496	-397.37070	38.40101	44.25531	-462.61969	7.69980	70.41924																																																																																																																															
